<?xml version="1.0" encoding="utf-8"?>
<!-- Generator: Adobe Illustrator 28.2.0, SVG Export Plug-In . SVG Version: 6.00 Build 0)  -->
<!DOCTYPE svg PUBLIC "-//W3C//DTD SVG 1.1//EN" "http://www.w3.org/Graphics/SVG/1.1/DTD/svg11.dtd" [
	<!ENTITY ns_extend "http://ns.adobe.com/Extensibility/1.0/">
	<!ENTITY ns_ai "http://ns.adobe.com/AdobeIllustrator/10.0/">
	<!ENTITY ns_graphs "http://ns.adobe.com/Graphs/1.0/">
	<!ENTITY ns_vars "http://ns.adobe.com/Variables/1.0/">
	<!ENTITY ns_imrep "http://ns.adobe.com/ImageReplacement/1.0/">
	<!ENTITY ns_sfw "http://ns.adobe.com/SaveForWeb/1.0/">
	<!ENTITY ns_custom "http://ns.adobe.com/GenericCustomNamespace/1.0/">
	<!ENTITY ns_adobe_xpath "http://ns.adobe.com/XPath/1.0/">
]>
<svg version="1.1" id="Layer_1" xmlns:x="&ns_extend;" xmlns:i="&ns_ai;" xmlns:graph="&ns_graphs;"
	 xmlns="http://www.w3.org/2000/svg" xmlns:xlink="http://www.w3.org/1999/xlink" x="0px" y="0px" viewBox="0 0 500 334"
	 style="enable-background:new 0 0 500 334;" xml:space="preserve">
<style type="text/css">
	.st0{fill:#1F1F1F;}
</style>
<metadata>
	<sfw  xmlns="&ns_sfw;">
		<slices></slices>
		<sliceSourceBounds  bottomLeftOrigin="true" height="303.5" width="476.7" x="11.4" y="92"></sliceSourceBounds>
		<optimizationSettings>
			<targetSettings  fileFormat="JPEGFormat" targetSettingsID="0">
				
					<JPEGFormat  blurAmount="0" embedICCProfile="true" matteColor="#FFFFFF" noMatteColor="false" optimized="true" progressive="true" quality="100">
					</JPEGFormat>
			</targetSettings>
		</optimizationSettings>
	</sfw>
</metadata>
<g>
	<path class="st0" d="M488.1,68.8l-74.8,217c-42.6-15.1-100.1-24.3-163.2-24.3c-63.5,0-121.2,9.3-163.8,24.6L11.4,68.8l80,56.3
		l-17.2,47.2l1.4,1.2c10.4,8.5,22.8,12.6,35.1,12.6c18.9,0,37.5-9.6,47.9-27.5L120.9,122l41.5-106.3l70,81.7l-30.8,54.3l8.6,8.8
		c21.7,22.3,57.5,22.3,79.2,0l8.6-8.8l-30.8-54.3l70-81.7L378.7,122l-37.8,36.5c17.2,29.5,56.6,36.6,83,14.9l1.4-1.2L408.1,125
		L488.1,68.8z"/>
	<path class="st0" d="M409.3,297.2l-7.8,21.6c-41.1-12.8-93.8-20.4-151.3-20.4c-58.2,0-111.6,7.9-152.9,20.9l-7.1-21.8
		c42.3-14.5,98.4-23.3,160.1-23.3C311.3,274.3,367.1,282.9,409.3,297.2z"/>
</g>
</svg>
